<svg width="80" height="88" viewBox="0 0 80 88" fill="none" xmlns="http://www.w3.org/2000/svg">
<g filter="url(#filter0_d_9_876)">
<rect x="23" y="23" width="40" height="40" rx="20" fill="white"/>
<rect x="23.25" y="23.25" width="39.5" height="39.5" rx="19.75" stroke="#185F90" stroke-width="0.5"/>
<path d="M39.352 51.242C40.192 52.31 41.514 53 43 53C44.486 53 45.807 52.311 46.648 51.242C44.2271 51.5702 41.7729 51.5702 39.352 51.242ZM49.75 40V40.704C49.75 41.549 49.99 42.375 50.442 43.078L51.55 44.801C52.561 46.375 51.789 48.514 50.03 49.011C45.4338 50.313 40.5662 50.313 35.97 49.011C34.211 48.514 33.439 46.375 34.45 44.801L35.558 43.078C36.01 42.375 36.251 41.549 36.251 40.704V40C36.251 36.134 39.273 33 43 33C46.727 33 49.75 36.134 49.75 40Z" fill="#185F90"/>
</g>
<defs>
<filter id="filter0_d_9_876" x="0" y="0" width="88" height="88" filterUnits="userSpaceOnUse" color-interpolation-filters="sRGB">
<feFlood flood-opacity="0" result="BackgroundImageFix"/>
<feColorMatrix in="SourceAlpha" type="matrix" values="0 0 0 0 0 0 0 0 0 0 0 0 0 0 0 0 0 0 127 0" result="hardAlpha"/>
<feOffset dx="1" dy="1"/>
<feGaussianBlur stdDeviation="12"/>
<feComposite in2="hardAlpha" operator="out"/>
<feColorMatrix type="matrix" values="0 0 0 0 0 0 0 0 0 0 0 0 0 0 0 0 0 0 0.1 0"/>
<feBlend mode="normal" in2="BackgroundImageFix" result="effect1_dropShadow_9_876"/>
<feBlend mode="normal" in="SourceGraphic" in2="effect1_dropShadow_9_876" result="shape"/>
</filter>
</defs>
</svg>
